<svg width="31" height="31" viewBox="0 0 31 31" fill="none" xmlns="http://www.w3.org/2000/svg">
<path d="M27.8634 8.26433C27.8477 7.08867 27.6277 5.9247 27.213 4.82448C26.8534 3.89646 26.3042 3.05364 25.6004 2.34989C24.8967 1.64613 24.0539 1.09692 23.1259 0.737333C22.0398 0.329637 20.8924 0.109189 19.7326 0.0853754C18.2393 0.0186274 17.7658 0 13.9752 0C10.1845 0 9.69864 1.04088e-07 8.21621 0.0853754C7.05691 0.109364 5.91007 0.32981 4.82448 0.737333C3.89631 1.09667 3.05337 1.64579 2.34958 2.34958C1.6458 3.05336 1.09667 3.89631 0.737332 4.82448C0.328821 5.90973 0.108851 7.05683 0.0869276 8.21621C0.0201796 9.71106 0 10.1845 0 13.9752C0 17.7658 -1.15654e-08 18.2501 0.0869276 19.7341C0.110212 20.8952 0.329083 22.0408 0.737332 23.129C1.09727 24.0568 1.64681 24.8994 2.35083 25.6029C3.05485 26.3064 3.89787 26.8553 4.82603 27.2146C5.90865 27.6386 7.05569 27.8749 8.21776 27.9131C9.71261 27.9798 10.1861 28 13.9767 28C17.7674 28 18.2532 28 19.7357 27.9131C20.8955 27.8902 22.0429 27.6703 23.129 27.2627C24.0567 26.9027 24.8993 26.3533 25.603 25.6496C26.3067 24.9459 26.8561 24.1033 27.2161 23.1755C27.6244 22.0889 27.8432 20.9433 27.8665 19.7807C27.9333 18.2874 27.9534 17.8139 27.9534 14.0217C27.9503 10.2311 27.9503 9.74986 27.8634 8.26433ZM13.9659 21.1436C10.0013 21.1436 6.78967 17.9319 6.78967 13.9674C6.78967 10.0029 10.0013 6.79122 13.9659 6.79122C15.8691 6.79122 17.6944 7.54728 19.0402 8.89308C20.386 10.2389 21.142 12.0642 21.142 13.9674C21.142 15.8706 20.386 17.6959 19.0402 19.0417C17.6944 20.3875 15.8691 21.1436 13.9659 21.1436ZM21.4277 8.19913C20.5009 8.19913 19.7543 7.45094 19.7543 6.52578C19.7543 6.30613 19.7976 6.08864 19.8816 5.88571C19.9657 5.68278 20.0889 5.4984 20.2442 5.34309C20.3995 5.18777 20.5839 5.06457 20.7868 4.98052C20.9897 4.89646 21.2072 4.8532 21.4269 4.8532C21.6465 4.8532 21.864 4.89646 22.0669 4.98052C22.2699 5.06457 22.4543 5.18777 22.6096 5.34309C22.7649 5.4984 22.8881 5.68278 22.9721 5.88571C23.0562 6.08864 23.0995 6.30613 23.0995 6.52578C23.0995 7.45094 22.3513 8.19913 21.4277 8.19913Z" fill="#78AEEE"/>
<path d="M13.9661 18.629C16.5405 18.629 18.6276 16.542 18.6276 13.9675C18.6276 11.3931 16.5405 9.30603 13.9661 9.30603C11.3916 9.30603 9.30457 11.3931 9.30457 13.9675C9.30457 16.542 11.3916 18.629 13.9661 18.629Z" fill="#78AEEE"/>
<path d="M29.205 7.1272L29.205 7.12719L29.2017 7.11858C28.8175 6.12715 28.2308 5.22676 27.479 4.47493C26.7271 3.7231 25.8267 3.13637 24.8353 2.75222L24.8353 2.75216L24.8254 2.74846C23.7149 2.33157 22.5419 2.10549 21.356 2.07975C19.9571 2.01724 19.4934 2 15.9769 2H15.938C12.4746 2 11.9813 2 10.5898 2.0799C9.40668 2.1065 8.23646 2.33251 7.12843 2.74846L7.12841 2.74841L7.11884 2.75211C6.12718 3.13603 5.22657 3.72272 4.47465 4.47465C3.72272 5.22657 3.13603 6.12718 2.75211 7.11884L2.75207 7.11883L2.74877 7.12759C2.33084 8.23788 2.10508 9.41121 2.08115 10.5973C2.01869 11.9964 2 12.4603 2 15.9769V16.0164C2 19.4786 2 19.9714 2.08133 21.3642C2.10728 22.5485 2.33168 23.7175 2.74839 24.8282L2.74833 24.8282L2.75235 24.8385C3.13688 25.8298 3.72396 26.73 4.47607 27.4815C5.22767 28.2326 6.12756 28.8187 7.11832 29.2024C8.22718 29.6366 9.40184 29.8787 10.592 29.9185C11.9964 29.9813 12.4561 30 15.9784 30H16.0179C19.4799 30 19.9743 30 21.3656 29.9187C22.5491 29.8931 23.7199 29.6676 24.8283 29.2516L24.8283 29.2516L24.8386 29.2476C25.8297 28.8631 26.7297 28.2763 27.4814 27.5246C28.233 26.7729 28.8198 25.8729 29.2044 24.8819L29.2044 24.8819L29.2082 24.8718C29.626 23.7599 29.8504 22.5883 29.8756 21.4004C29.9381 20.0022 29.9568 19.5387 29.9568 16.0202V16.0194L29.9567 15.9338C29.9539 12.5161 29.9535 12.0227 29.8727 10.6376C29.8541 9.43781 29.6282 8.25017 29.205 7.1272ZM15.9683 21.6333C12.8392 21.6333 10.3047 19.0988 10.3047 15.9697C10.3047 12.8407 12.8392 10.3061 15.9683 10.3061C17.4704 10.3061 18.9109 10.9028 19.9731 11.965C21.0352 13.0271 21.6319 14.4677 21.6319 15.9697C21.6319 17.4718 21.0352 18.9124 19.9731 19.9745C18.9109 21.0366 17.4704 21.6333 15.9683 21.6333ZM22.8971 9.61348C22.5895 9.61348 22.3433 9.36705 22.3433 9.05965C22.3433 8.98701 22.3576 8.91509 22.3854 8.84799C22.4132 8.78088 22.4539 8.71991 22.5053 8.66855L21.7982 7.96144L22.5053 8.66854C22.5566 8.61718 22.6176 8.57644 22.6847 8.54865C22.7518 8.52085 22.8238 8.50654 22.8964 8.50654C22.969 8.50654 23.0409 8.52085 23.1081 8.54865C23.1752 8.57644 23.2361 8.61719 23.2875 8.66855C23.3389 8.7199 23.3796 8.78088 23.4074 8.84798C23.4352 8.91509 23.4495 8.98702 23.4495 9.05965C23.4495 9.36705 23.2019 9.61348 22.8971 9.61348Z" stroke="#003964" stroke-width="2"/>
<path d="M15.9661 21.629C19.0928 21.629 21.6276 19.0943 21.6276 15.9675C21.6276 12.8408 19.0928 10.306 15.9661 10.306C12.8393 10.306 10.3046 12.8408 10.3046 15.9675C10.3046 19.0943 12.8393 21.629 15.9661 21.629Z" stroke="#003964" stroke-width="2"/>
</svg>
