<svg width="28" height="23" viewBox="0 0 28 23" fill="none" xmlns="http://www.w3.org/2000/svg">
<path d="M22.3235 0H2.48039C1.11618 0 0.0124019 1.11618 0.0124019 2.48039L0 17.3627C0 18.727 1.11618 19.8431 2.48039 19.8431H22.3235C23.6877 19.8431 24.8039 18.727 24.8039 17.3627V2.48039C24.8039 1.11618 23.6877 0 22.3235 0ZM21.8275 5.27083L13.0593 10.7525C12.6624 11.0005 12.1415 11.0005 11.7447 10.7525L2.97647 5.27083C2.85211 5.20102 2.74321 5.10671 2.65636 4.99359C2.56951 4.88048 2.50651 4.75092 2.47118 4.61275C2.43585 4.47458 2.42893 4.33068 2.45082 4.18976C2.47272 4.04884 2.52298 3.91383 2.59856 3.79289C2.67414 3.67196 2.77348 3.56762 2.89056 3.48619C3.00763 3.40475 3.14002 3.34792 3.27969 3.31914C3.41937 3.29035 3.56343 3.2902 3.70317 3.3187C3.8429 3.3472 3.9754 3.40376 4.09265 3.48495L12.402 8.68137L20.7113 3.48495C20.8285 3.40376 20.961 3.3472 21.1008 3.3187C21.2405 3.2902 21.3846 3.29035 21.5242 3.31914C21.6639 3.34792 21.7963 3.40475 21.9134 3.48619C22.0304 3.56762 22.1298 3.67196 22.2054 3.79289C22.2809 3.91383 22.3312 4.04884 22.3531 4.18976C22.375 4.33068 22.3681 4.47458 22.3327 4.61275C22.2974 4.75092 22.2344 4.88048 22.1476 4.99359C22.0607 5.10671 21.9518 5.20102 21.8275 5.27083Z" fill="#7DB3F3"/>
<path d="M24.4804 2.15698H4.63725C3.27304 2.15698 2.16926 3.27316 2.16926 4.63737L2.15686 19.5197C2.15686 20.8839 3.27304 22.0001 4.63725 22.0001H24.4804C25.8446 22.0001 26.9608 20.8839 26.9608 19.5197V4.63737C26.9608 3.27316 25.8446 2.15698 24.4804 2.15698ZM23.9843 7.42782L15.2161 12.9095C14.8193 13.1575 14.2984 13.1575 13.9015 12.9095L5.13333 7.42782C5.00897 7.35801 4.90007 7.26369 4.81322 7.15057C4.72637 7.03746 4.66337 6.9079 4.62804 6.76973C4.59272 6.63156 4.58579 6.48767 4.60768 6.34675C4.62958 6.20582 4.67984 6.07081 4.75542 5.94988C4.831 5.82894 4.93034 5.7246 5.04742 5.64317C5.16449 5.56174 5.29688 5.50491 5.43655 5.47612C5.57623 5.44733 5.72029 5.44718 5.86003 5.47568C5.99976 5.50418 6.13226 5.56074 6.24951 5.64193L14.5588 10.8384L22.8681 5.64193C22.9854 5.56074 23.1179 5.50418 23.2576 5.47568C23.3973 5.44718 23.5414 5.44733 23.6811 5.47612C23.8208 5.50491 23.9531 5.56174 24.0702 5.64317C24.1873 5.7246 24.2866 5.82894 24.3622 5.94988C24.4378 6.07081 24.4881 6.20582 24.51 6.34675C24.5319 6.48767 24.5249 6.63156 24.4896 6.76973C24.4543 6.9079 24.3913 7.03746 24.3044 7.15057C24.2176 7.26369 24.1087 7.35801 23.9843 7.42782Z" stroke="#003964" stroke-width="2"/>
</svg>
