<svg width="25" height="25" viewBox="0 0 25 25" fill="none" xmlns="http://www.w3.org/2000/svg">
<path d="M22.5775 18.0166L17.3292 13.2448C17.0812 13.0193 16.7552 12.899 16.4201 12.9094C16.085 12.9198 15.767 13.0599 15.5333 13.3003L12.4438 16.4777C11.7001 16.3356 10.2051 15.8696 8.66609 14.3345C7.12712 12.7942 6.66105 11.2953 6.5229 10.5568L9.69766 7.46592C9.93834 7.2324 10.0787 6.9144 10.0891 6.57921C10.0994 6.24403 9.97897 5.91796 9.75318 5.67002L4.98264 0.423077C4.75676 0.174359 4.44281 0.0234929 4.10749 0.00251992C3.77216 -0.0184531 3.44186 0.092119 3.18675 0.310753L0.385106 2.71345C0.161893 2.93747 0.0286639 3.23563 0.0106927 3.55136C-0.00867352 3.87413 -0.377922 11.5199 5.55072 17.4511C10.7228 22.6219 17.2014 23.0002 18.9857 23.0002C19.2465 23.0002 19.4066 22.9924 19.4492 22.9899C19.7649 22.9722 20.0629 22.8384 20.2858 22.6142L22.6872 19.8112C22.9067 19.5569 23.0181 19.2269 22.9976 18.8916C22.9771 18.5563 22.8263 18.2423 22.5775 18.0166Z" fill="#7DB3F3"/>
<path d="M23.9057 20.7574L23.9047 20.7565L18.6566 15.9848C18.6566 15.9848 18.6566 15.9847 18.6565 15.9847C18.6004 15.9338 18.5267 15.9066 18.451 15.9089C18.3752 15.9113 18.3032 15.943 18.2504 15.9974L18.2503 15.9974L15.1607 19.1748L14.7853 19.5609L14.2562 19.4599C13.3546 19.2877 11.6658 18.7441 9.95988 17.0425L9.95869 17.0413C8.25296 15.3341 7.70828 13.6405 7.53995 12.7406L7.44143 12.214L7.82533 11.8402L11.0001 8.7494L11.0013 8.74822C11.0556 8.69558 11.0872 8.62388 11.0895 8.54831C11.0919 8.47275 11.0647 8.39923 11.0138 8.34333L11.0133 8.34274L6.24274 3.09579L6.24237 3.09539C6.19144 3.03931 6.12066 3.0053 6.04506 3.00057C5.96958 2.99585 5.89522 3.02069 5.83774 3.06984C5.83773 3.06985 5.83771 3.06986 5.83769 3.06988C5.83762 3.06994 5.83755 3.07 5.83748 3.07006L3.07646 5.43792C3.03641 5.48578 3.01265 5.54544 3.00908 5.60819L3.0089 5.61126C2.99399 5.8597 2.64397 13.1275 8.25773 18.7439C8.25781 18.744 8.2579 18.7441 8.25798 18.7442M23.9057 20.7574L21.4492 24.9899C21.4066 24.9924 21.2465 25.0002 20.9857 25.0002C19.2014 25.0002 12.7228 24.6219 7.55072 19.4511M23.9057 20.7574C23.9612 20.8077 23.9949 20.8778 23.9995 20.9526C24.004 21.0274 23.9792 21.1011 23.9302 21.1578L23.9278 21.1606L21.5593 23.9251M23.9057 20.7574L21.5593 23.9251M8.25798 18.7442L7.55072 19.4511M8.25798 18.7442C13.1503 23.6351 19.2992 24.0002 20.9857 24.0002C21.2281 24.0002 21.3679 23.993 21.3887 23.9917L21.3933 23.9914C21.4546 23.988 21.5128 23.9646 21.5593 23.9251M8.25798 18.7442L21.5593 23.9251M7.55072 19.4511C1.62208 13.5199 1.99133 5.87413 2.01069 5.55136C2.02866 5.23563 2.16189 4.93747 2.38511 4.71345L7.55072 19.4511Z" stroke="#003964" stroke-width="2"/>
</svg>
