<svg width="339" height="875" viewBox="0 0 339 875" fill="none" xmlns="http://www.w3.org/2000/svg">
<path d="M241.128 267.932C286.995 348.15 303.049 486.664 282.538 606.328C261.563 726.436 204.023 827.695 133.474 897.808C63.2911 968.083 -19.4361 1006.77 -89.032 973.891C-158.896 940.245 -215.164 834.592 -257.318 714.399C-299.471 594.206 -327.242 460.242 -308.176 347.09C-289.573 234.383 -224.231 143.095 -157.762 112.795C-91.6584 82.3325 -24.0619 113.02 47.8084 139.103C119.313 165.023 194.993 186.945 241.128 267.932Z" fill="white" fill-opacity="0.5"/>
<path d="M219.749 465.428C240.135 546.032 228.639 655.914 193.282 734.891C157.507 813.981 97.8717 862.165 33.8709 881.281C-29.8867 900.686 -97.5916 890.91 -143.512 834.305C-189.501 777.007 -213.288 672.767 -224.184 564.323C-235.079 455.88 -233.015 343.926 -199.825 269.095C-167.053 194.377 -103.33 157.187 -49.063 165.62C4.96091 173.764 49.7724 227.822 98.5213 280.458C147.027 332.803 199.295 384.13 219.749 465.428Z" fill="white" fill-opacity="0.5"/>
<path d="M142.721 612.344C141.761 672.258 115.895 735.567 80.3687 768.402C44.562 801.112 -0.905164 803.349 -44.1593 785.375C-87.3108 767.696 -127.969 729.932 -147.049 673.081C-166.055 615.765 -163.203 539.487 -151.578 466.609C-139.953 393.731 -119.631 324.718 -86.164 293.461C-52.9776 262.08 -6.8245 268.625 25.6622 299.268C58.0462 329.616 76.8665 384.357 98.3897 440.049C119.81 495.446 143.756 551.965 142.721 612.344Z" fill="white" fill-opacity="0.5"/>
</svg>
